<?xml version="1.0" encoding="UTF-8"?>
<!DOCTYPE svg PUBLIC "-//W3C//DTD SVG 1.1//EN" "http://www.w3.org/Graphics/SVG/1.1/DTD/svg11.dtd">
<!-- Creator: CorelDRAW 2020 (64 Bit) -->
<svg xmlns="http://www.w3.org/2000/svg" xml:space="preserve" width="187.312mm" height="164.839mm" version="1.1" style="shape-rendering:geometricPrecision; text-rendering:geometricPrecision; image-rendering:optimizeQuality; fill-rule:evenodd; clip-rule:evenodd"
viewBox="0 0 1870.03 1645.66"
 xmlns:xlink="http://www.w3.org/1999/xlink"
 xmlns:xodm="http://www.corel.com/coreldraw/odm/2003">
 <defs>
  <style type="text/css">
   <![CDATA[
    .fil3 {fill:#FBBD2A}
    .fil0 {fill:#FEFFFE}
    .fil1 {fill:url(#id0)}
    .fil2 {fill:url(#id1)}
   ]]>
  </style>
  <linearGradient id="id0" gradientUnits="userSpaceOnUse" x1="1244.19" y1="748.75" x2="702.69" y2="138.57">
   <stop offset="0" style="stop-opacity:1; stop-color:#FA5B2A"/>
   <stop offset="1" style="stop-opacity:1; stop-color:#FF731C"/>
  </linearGradient>
  <linearGradient id="id1" gradientUnits="userSpaceOnUse" xlink:href="#id0" x1="1244.19" y1="748.75" x2="702.69" y2="138.57">
  </linearGradient>
 </defs>
 <g id="Camada_x0020_1">
  <metadata id="CorelCorpID_0Corel-Layer"/>
  <g id="_2286406998304">
   <path class="fil0" d="M1081.45 1215.72c-85.71,33.65 -150.64,64.25 -260.82,12.27 -32.28,-15.23 -24.55,-17.54 -63.47,-6.93 -97.2,26.49 -187.55,86.91 -217.45,186.69 -8.71,29.06 -24.42,115.99 -14.16,143.67 17.44,47.07 176.24,76 239.6,83.46 100.94,11.88 207.44,14.86 308.09,4.34 71.95,-7.51 212.51,-29.77 256.61,-67.87 19.16,-16.56 17.23,-31.82 16.4,-63.8 -0.62,-23.89 -3.5,-48.58 -8.46,-72 -10.12,-47.82 -28.32,-79.11 -52.47,-109.05 -21.92,-27.17 -50.64,-51.96 -88.5,-73.15 -17.68,-9.89 -95.46,-45.44 -115.36,-37.62z"/>
   <path class="fil0" d="M1240.36 1203.77l70.53 54.89c72.95,69.13 95.12,163.09 100.68,268.68 118.38,7.8 245.98,5.35 358.08,-27.22 101.34,-29.44 102.69,-37.52 99.62,-93.27 -6.46,-117.24 -59.81,-183.88 -160.25,-232.69 -83.49,-40.57 -76.45,-16.46 -155.76,-2.4 -138.25,24.52 -127.79,-51.24 -248.83,-2.29 -25.73,10.4 -46.01,27.27 -64.06,34.3z"/>
   <path class="fil0" d="M458.12 1527.44c-2.08,-128.62 58.17,-264.47 166.5,-319.2 -25.63,-23.41 -90.01,-58.64 -140.36,-55.94 -32.8,1.76 -77.17,35.89 -168.07,20.21 -78.71,-13.57 -73.14,-37.88 -156.11,0.83 -96.52,45.02 -152.87,123.45 -159.39,233.04 -3.61,60.71 4.08,68.24 98.83,94.66 111.15,30.99 241.58,35.46 358.61,26.4z"/>
   <path class="fil0" d="M916.88 769.74c-104.13,7.87 -192.23,102.97 -183.42,218.04 8.07,105.35 103.35,197.06 218.6,187.63 61.54,-5.03 95.76,-33.89 132.07,-67.84 30.76,-28.76 55.15,-90.76 51.03,-152.82 -6.9,-103.94 -106.03,-193.49 -218.27,-185.01z"/>
   <path class="fil0" d="M345.54 716.62c-99.45,13.18 -180.99,102.1 -170.1,216.47 13.92,146.27 185.6,208.46 288.07,144.9 9.67,-6 21.56,-14.07 29.15,-19.96l24.44 -24.46c27.3,-34.34 50.57,-88.14 42.94,-148.31 -11.87,-93.63 -102.85,-183.44 -214.51,-168.64z"/>
   <path class="fil0" d="M1477.67 717.56c-97.44,14.5 -182.78,101.73 -167.24,218.42 14.19,106.55 111.67,178.9 218.63,164.9 97.57,-12.77 180.58,-103.64 164.76,-219.02 -12.77,-93.13 -104.76,-180.88 -216.15,-164.3z"/>
   <g>
    <path class="fil1" d="M755.46 780.25c-13.08,-47.18 -14.12,-178.2 25.99,-204.24 4.32,39.29 15.73,83.78 56.58,82.56 31.8,-52.17 -6.02,-110.72 57.3,-180.14 8.84,-9.69 10.62,-16.88 22.64,-26.81l21.31 -17.52c0.6,-0.46 1.46,-1.05 2.07,-1.49 0.62,-0.45 1.52,-0.98 2.14,-1.42l37.32 -21.12c-5.22,16.42 -15.71,29.06 -17.79,47.71 -1.74,15.62 -2,36.68 1,52.4 2.22,11.62 9.87,33.38 15.76,44.39 3.39,6.33 8.67,13.69 10.98,16.92 0.42,0.58 1.03,1.41 1.45,2 0.42,0.59 1.02,1.43 1.45,2.02l11.82 14.8c-0.69,-24.03 -14.76,-17.19 0.51,-22.6l-4.69 -2.08c-3.7,-1.52 -9.76,-2.13 -8.88,-9.44 0.84,-6.99 -0.18,4.69 1.35,-6.01 2.86,-19.95 -17.04,-24.82 2.79,-36.86 10.61,-6.44 7.11,-2.09 9.55,-1.38 0,0 11.47,5.73 13.46,6.62 5.05,-9.92 -11.23,-4.13 24.49,-14.3l17.77 3.24 1.93 -11.07c0.13,-0.53 0.56,-1.84 0.68,-2.27 0.12,-0.44 0.38,-1.58 0.75,-2.3 -21.65,-35.65 13.29,-116.49 21.82,-156.19 19.7,-91.61 -6.73,-155.14 -54.88,-221.3 -37.44,-51.44 -117.5,-95.8 -176.66,-114.36 51.79,59.18 68.95,157.86 18.75,241.99 -46.6,78.11 -104.07,116.95 -106.11,214.49 -0.94,-0.65 -2.22,-2.85 -2.69,-2.12l-5 -4.16c-0.64,-0.6 -1.49,-1.36 -2.15,-2.03 -16.51,-16.48 -24.21,-59.9 -25.2,-81.46 -2.13,-46.44 10.89,-68.73 14.9,-108.05 -11.84,11.61 -38.91,30.43 -52.63,47.79 -22.54,28.53 -19.59,17.09 -45.55,59.76 -66.45,109.25 -62.1,254.77 5.61,361.29 20.73,32.61 41.93,61.68 75.38,82.56 12.84,-14.9 10.83,-17.67 24.69,-29.81z"/>
    <path class="fil2" d="M1065.19 491.85c-3.34,6.34 -2.17,-9.91 -3.08,-6.3 -4.38,1.05 1.77,-10.4 -2.61,-9.35l-42.34 17.32c-35.72,10.17 -41.5,29.4 -46.55,39.31 -1.99,-0.89 4.28,11.16 4.28,11.16 -2.44,-0.71 21.73,-3.11 11.12,3.33 -19.84,12.04 10.63,-17.09 7.78,2.85 -1.53,10.69 -0.51,-0.98 -1.35,6.01 -0.88,7.31 5.18,7.92 8.88,9.44l4.69 2.08c-15.28,5.41 -1.21,-1.42 -0.51,22.6 9.78,8.14 25.43,32.58 43.65,49.67l6.94 7.08c24.45,31.15 29.3,84.13 18.69,100.7 12.4,11.35 23.86,17.09 34.45,25.9 14.71,12.23 18.34,22.79 29.79,35.48 19.26,-14.73 27.08,-15.43 42.18,-37.75 37.15,-54.89 66.01,-80.02 74.87,-179.27 9.07,-101.58 -36.07,-194.96 -81.28,-257.69 2.91,43.66 -2.19,90.09 -22.2,125.97 -14.05,25.2 -59.59,76.46 -87.39,31.45z"/>
   </g>
   <path class="fil3" d="M755.46 780.25c12.21,-5.95 22.74,-26.51 61.4,-45.98 88.34,-44.48 176.12,-36.88 257.9,13.49 10.62,-16.57 5.76,-69.55 -18.69,-100.7l-6.94 -7.08c-18.22,-17.09 -33.87,-41.53 -43.65,-49.67l-11.82 -14.8c-0.43,-0.6 -1.02,-1.43 -1.45,-2.02 -0.42,-0.59 -1.03,-1.41 -1.45,-2 -2.31,-3.23 -7.59,-10.6 -10.98,-16.92 -5.9,-11 -13.55,-32.76 -15.76,-44.39 -3,-15.72 -2.73,-36.78 -1,-52.4 2.07,-18.65 12.57,-31.29 17.79,-47.71l-37.32 21.12c-0.62,0.43 -1.52,0.97 -2.14,1.42 -0.61,0.44 -1.47,1.03 -2.07,1.49l-21.31 17.52c-12.02,9.93 -13.8,17.12 -22.64,26.81 -63.32,69.42 -25.49,127.97 -57.3,180.14 -40.85,1.23 -52.26,-43.27 -56.58,-82.56 -40.12,26.04 -39.08,157.06 -25.99,204.24z"/>
  </g>
 </g>
</svg>
